<?xml version="1.0" encoding="utf-8"?>
<!-- Generator: Adobe Illustrator 25.0.0, SVG Export Plug-In . SVG Version: 6.00 Build 0)  -->
<svg version="1.1" id="Capa_1" xmlns="http://www.w3.org/2000/svg" xmlns:xlink="http://www.w3.org/1999/xlink" x="0px" y="0px"
	 viewBox="0 0 214.3 40.33" style="enable-background:new 0 0 214.3 40.33;" xml:space="preserve">
<style type="text/css">
	.st0{fill:#5E5FEB;}
	.st1{fill:#FFFFFF;}
</style>
<g>
	<g>
		<path class="st0" d="M36.1,7.81c-0.22,0.8-0.48,1.57-0.76,2.29c-1.49,3.87-3.53,6.5-3.53,6.5c1.45-4.4,1.68-8.16,1.19-11.34
			c-0.04-0.26-0.08-0.51-0.13-0.76C29.4,1.69,24.98,0,20.17,0C9.03,0,0,9.03,0,20.17c0,6.71,3.28,12.65,8.32,16.32
			c4.04-0.88,7.28-2.65,9.88-4.95c0.39-0.34,0.76-0.69,1.12-1.06c1.39-1.41,2.57-2.97,3.59-4.61l-6.18-1.95
			c-0.07-0.02-0.09-0.11-0.03-0.16l1.06-0.96c0.17-0.15,0.39-0.23,0.62-0.22l6.13,0.34l1.42,0.08l1.57-2.25
			c0.24-0.35,0.51-0.68,0.81-1c0.48-0.51,1.09-0.89,1.77-1.09c0.23-0.07,0.46,0.08,0.49,0.32l0,0c0.09,0.7,0,1.41-0.28,2.05l0,0
			c-0.17,0.39-0.36,0.78-0.58,1.14l-1.42,2.35l0.68,1.33l2.77,5.4c0.1,0.2,0.12,0.44,0.05,0.66l-0.45,1.35
			c-0.02,0.07-0.11,0.08-0.16,0.03l-4.23-4.78c-1.01,1.19-2.13,2.31-3.37,3.32c-0.45,0.37-0.93,0.73-1.41,1.07
			c-3.48,2.43-7.82,4.01-13.23,4.01c3.21,2.16,7.08,3.42,11.24,3.42c11.14,0,20.17-9.03,20.17-20.17
			C40.33,15.51,38.75,11.22,36.1,7.81z"/>
		<path class="st1" d="M32.87,4.51c0.05,0.25,0.09,0.5,0.13,0.76c0.49,3.18,0.25,6.94-1.19,11.34c0,0,2.04-2.63,3.53-6.5
			c0.28-0.72,0.54-1.49,0.76-2.29C35.15,6.59,34.07,5.48,32.87,4.51z"/>
		<path class="st1" d="M31.72,31.26l-2.77-5.4l-0.68-1.33l1.42-2.35c0.22-0.37,0.42-0.75,0.58-1.14l0,0
			c0.27-0.65,0.37-1.36,0.28-2.05l0,0c-0.03-0.23-0.26-0.39-0.49-0.32c-0.67,0.2-1.28,0.58-1.77,1.09c-0.29,0.31-0.56,0.65-0.81,1
			l-1.57,2.25l-1.42-0.08l-6.13-0.34c-0.23-0.01-0.45,0.07-0.62,0.22l-1.06,0.96c-0.05,0.05-0.03,0.13,0.03,0.16l6.18,1.95
			c-1.01,1.65-2.2,3.21-3.59,4.61c-0.36,0.36-0.73,0.72-1.12,1.06c-2.6,2.29-5.84,4.07-9.88,4.95c0.2,0.15,0.4,0.29,0.61,0.43
			c5.4,0,9.74-1.58,13.23-4.01c0.49-0.34,0.96-0.69,1.41-1.07c1.24-1.01,2.36-2.13,3.37-3.32l4.23,4.78
			c0.05,0.05,0.13,0.04,0.16-0.03l0.45-1.35C31.84,31.7,31.82,31.46,31.72,31.26z"/>
	</g>
	<g>
		<g>
			<path class="st0" d="M63.01,21.29h-7.34l-1.21,3.51h-3.88L57.2,6.35h4.3l6.63,18.46h-3.91L63.01,21.29z M62.01,18.34l-2.67-7.71
				l-2.67,7.71H62.01z"/>
			<path class="st0" d="M76.28,10.6c0.84-0.44,1.79-0.66,2.87-0.66c1.25,0,2.38,0.31,3.39,0.92c1.01,0.62,1.81,1.49,2.4,2.63
				c0.59,1.14,0.88,2.45,0.88,3.95c0,1.5-0.29,2.82-0.88,3.97c-0.59,1.15-1.39,2.05-2.4,2.68c-1.01,0.63-2.14,0.95-3.39,0.95
				c-1.09,0-2.05-0.22-2.87-0.65c-0.82-0.43-1.47-0.99-1.97-1.68v2.09h-3.7V5.26h3.7v7.05C74.79,11.61,75.44,11.04,76.28,10.6z
				 M81.51,15.15c-0.36-0.64-0.84-1.13-1.43-1.47c-0.59-0.33-1.23-0.5-1.92-0.5c-0.67,0-1.3,0.17-1.89,0.51
				c-0.59,0.34-1.06,0.84-1.43,1.49c-0.36,0.65-0.54,1.42-0.54,2.3s0.18,1.65,0.54,2.3s0.84,1.15,1.43,1.49s1.22,0.51,1.89,0.51
				c0.69,0,1.32-0.18,1.92-0.53c0.59-0.35,1.06-0.85,1.43-1.51c0.36-0.65,0.54-1.43,0.54-2.32C82.05,16.56,81.87,15.8,81.51,15.15z"
				/>
			<path class="st0" d="M94.08,10.62c0.77-0.44,1.64-0.66,2.63-0.66v3.88h-0.98c-1.16,0-2.04,0.27-2.63,0.82s-0.88,1.5-0.88,2.85
				v7.29h-3.7V10.18h3.7v2.27C92.69,11.67,93.31,11.06,94.08,10.62z"/>
			<path class="st0" d="M101.88,24.11c-1.13-0.62-2.01-1.51-2.65-2.65c-0.64-1.14-0.96-2.46-0.96-3.96s0.33-2.82,0.99-3.96
				c0.66-1.14,1.56-2.03,2.71-2.65c1.14-0.62,2.42-0.94,3.83-0.94c1.41,0,2.69,0.31,3.83,0.94c1.14,0.63,2.05,1.51,2.71,2.65
				c0.66,1.14,0.99,2.46,0.99,3.96s-0.34,2.82-1.02,3.96c-0.68,1.15-1.59,2.03-2.75,2.65s-2.44,0.94-3.87,0.94
				C104.28,25.04,103.01,24.73,101.88,24.11z M107.57,21.33c0.59-0.33,1.06-0.81,1.41-1.47c0.35-0.65,0.53-1.44,0.53-2.38
				c0-1.39-0.37-2.46-1.1-3.21c-0.73-0.75-1.62-1.12-2.68-1.12c-1.06,0-1.94,0.37-2.65,1.12c-0.71,0.75-1.07,1.82-1.07,3.21
				s0.35,2.46,1.04,3.21c0.7,0.75,1.57,1.12,2.63,1.12C106.35,21.82,106.98,21.66,107.57,21.33z"/>
			<path class="st0" d="M115.97,13.5c0.59-1.14,1.39-2.02,2.4-2.64c1.01-0.62,2.14-0.92,3.39-0.92c1.09,0,2.05,0.22,2.87,0.66
				c0.82,0.44,1.47,1,1.97,1.66v-2.09h3.72v14.63h-3.72v-2.14c-0.48,0.69-1.13,1.25-1.97,1.7s-1.8,0.67-2.89,0.67
				c-1.23,0-2.35-0.32-3.37-0.95s-1.81-1.53-2.4-2.68c-0.59-1.15-0.88-2.48-0.88-3.97C115.09,15.96,115.38,14.65,115.97,13.5z
				 M126.07,15.18c-0.35-0.64-0.83-1.14-1.43-1.48c-0.6-0.34-1.24-0.51-1.93-0.51s-1.32,0.17-1.9,0.5
				c-0.58,0.33-1.05,0.82-1.41,1.47c-0.36,0.64-0.54,1.4-0.54,2.28c0,0.88,0.18,1.65,0.54,2.31c0.36,0.66,0.84,1.17,1.43,1.52
				s1.22,0.53,1.89,0.53c0.69,0,1.33-0.17,1.93-0.51c0.6-0.34,1.07-0.84,1.43-1.48c0.35-0.64,0.53-1.41,0.53-2.31
				C126.6,16.59,126.42,15.82,126.07,15.18z"/>
			<path class="st0" d="M133.88,13.5c0.59-1.14,1.4-2.02,2.42-2.64c1.02-0.62,2.16-0.92,3.41-0.92c0.95,0,1.86,0.21,2.72,0.62
				c0.86,0.41,1.55,0.96,2.06,1.65V5.26h3.75v19.54h-3.75v-2.17c-0.46,0.72-1.1,1.3-1.93,1.74c-0.83,0.44-1.79,0.66-2.88,0.66
				c-1.23,0-2.36-0.32-3.38-0.95c-1.02-0.63-1.83-1.53-2.42-2.68c-0.59-1.15-0.88-2.48-0.88-3.97
				C132.99,15.96,133.29,14.65,133.88,13.5z M143.98,15.18c-0.35-0.64-0.83-1.14-1.43-1.48c-0.6-0.34-1.24-0.51-1.93-0.51
				s-1.32,0.17-1.9,0.5c-0.58,0.33-1.05,0.82-1.41,1.47c-0.36,0.64-0.54,1.4-0.54,2.28c0,0.88,0.18,1.65,0.54,2.31
				c0.36,0.66,0.84,1.17,1.43,1.52s1.22,0.53,1.89,0.53c0.69,0,1.33-0.17,1.93-0.51c0.6-0.34,1.07-0.84,1.43-1.48
				c0.35-0.64,0.53-1.41,0.53-2.31C144.51,16.59,144.33,15.82,143.98,15.18z"/>
			<path class="st0" d="M152.18,10.69c0.82-1.44,1.94-2.55,3.35-3.35c1.42-0.8,3.01-1.2,4.77-1.2c2.06,0,3.87,0.53,5.41,1.58
				c1.55,1.06,2.63,2.52,3.25,4.38h-4.25c-0.42-0.88-1.02-1.54-1.78-1.98c-0.77-0.44-1.65-0.66-2.65-0.66
				c-1.07,0-2.03,0.25-2.87,0.75c-0.84,0.5-1.49,1.21-1.95,2.13c-0.47,0.92-0.7,1.99-0.7,3.22c0,1.21,0.23,2.28,0.7,3.21
				s1.12,1.64,1.95,2.14c0.84,0.5,1.79,0.75,2.87,0.75c1,0,1.89-0.22,2.65-0.67c0.77-0.45,1.36-1.11,1.78-1.99h4.25
				c-0.62,1.88-1.69,3.35-3.23,4.4c-1.54,1.05-3.35,1.57-5.43,1.57c-1.76,0-3.35-0.4-4.77-1.2c-1.42-0.8-2.54-1.91-3.35-3.34
				s-1.23-3.05-1.23-4.86C150.95,13.75,151.36,12.13,152.18,10.69z"/>
			<path class="st0" d="M172.06,13.5c0.59-1.14,1.39-2.02,2.4-2.64c1.01-0.62,2.14-0.92,3.39-0.92c1.09,0,2.05,0.22,2.87,0.66
				c0.82,0.44,1.47,1,1.97,1.66v-2.09h3.72v14.63h-3.72v-2.14c-0.48,0.69-1.13,1.25-1.97,1.7s-1.8,0.67-2.89,0.67
				c-1.23,0-2.35-0.32-3.37-0.95s-1.81-1.53-2.4-2.68c-0.59-1.15-0.88-2.48-0.88-3.97C171.18,15.96,171.47,14.65,172.06,13.5z
				 M182.16,15.18c-0.35-0.64-0.83-1.14-1.43-1.48c-0.6-0.34-1.24-0.51-1.93-0.51s-1.32,0.17-1.9,0.5
				c-0.58,0.33-1.05,0.82-1.41,1.47c-0.36,0.64-0.54,1.4-0.54,2.28c0,0.88,0.18,1.65,0.54,2.31c0.36,0.66,0.84,1.17,1.43,1.52
				s1.22,0.53,1.89,0.53c0.69,0,1.33-0.17,1.93-0.51c0.6-0.34,1.07-0.84,1.43-1.48c0.35-0.64,0.53-1.41,0.53-2.31
				C182.69,16.59,182.51,15.82,182.16,15.18z"/>
			<path class="st0" d="M195.59,10.62c0.77-0.44,1.64-0.66,2.63-0.66v3.88h-0.98c-1.16,0-2.04,0.27-2.63,0.82s-0.88,1.5-0.88,2.85
				v7.29h-3.7V10.18h3.7v2.27C194.21,11.67,194.83,11.06,195.59,10.62z"/>
			<path class="st0" d="M214.2,18.6h-10.7c0.09,1.06,0.46,1.88,1.11,2.48c0.65,0.6,1.45,0.9,2.4,0.9c1.37,0,2.35-0.59,2.93-1.77
				h3.99c-0.42,1.41-1.23,2.57-2.43,3.47c-1.2,0.91-2.67,1.36-4.41,1.36c-1.41,0-2.67-0.31-3.79-0.94
				c-1.12-0.62-1.99-1.51-2.62-2.65c-0.62-1.14-0.94-2.46-0.94-3.96c0-1.51,0.31-2.84,0.92-3.99s1.48-2.02,2.59-2.64
				c1.11-0.62,2.39-0.92,3.83-0.92c1.39,0,2.64,0.3,3.74,0.9c1.1,0.6,1.95,1.45,2.56,2.55c0.61,1.1,0.91,2.36,0.91,3.79
				C214.3,17.7,214.27,18.18,214.2,18.6z M210.47,16.12c-0.02-0.95-0.36-1.71-1.03-2.28c-0.67-0.57-1.49-0.86-2.46-0.86
				c-0.92,0-1.69,0.28-2.31,0.83s-1.01,1.32-1.15,2.31H210.47z"/>
		</g>
		<g>
			<path class="st0" d="M51.52,30.73v1.41h1.65v0.64h-1.65v1.47h1.86v0.64h-2.65v-4.8h2.65v0.64H51.52z"/>
			<path class="st0" d="M55.13,29.79v5.1h-0.79v-5.1H55.13z"/>
			<path class="st0" d="M56.21,30.44c-0.1-0.1-0.14-0.22-0.14-0.36s0.05-0.26,0.14-0.36s0.22-0.14,0.36-0.14
				c0.14,0,0.25,0.05,0.35,0.14s0.14,0.22,0.14,0.36s-0.05,0.26-0.14,0.36c-0.1,0.1-0.21,0.15-0.35,0.15
				C56.43,30.59,56.31,30.54,56.21,30.44z M56.95,31.09v3.8h-0.79v-3.8H56.95z"/>
			<path class="st0" d="M58.9,31.73v2.1c0,0.14,0.03,0.25,0.1,0.31c0.07,0.06,0.18,0.09,0.34,0.09h0.48v0.65h-0.62
				c-0.35,0-0.62-0.08-0.81-0.25c-0.19-0.17-0.28-0.43-0.28-0.81v-2.1h-0.45v-0.64h0.45v-0.94h0.79v0.94h0.92v0.64H58.9z"/>
			<path class="st0" d="M64.01,33.28h-2.9c0.02,0.3,0.14,0.55,0.34,0.73s0.45,0.28,0.74,0.28c0.42,0,0.72-0.18,0.9-0.53h0.85
				c-0.11,0.35-0.32,0.63-0.62,0.86c-0.3,0.22-0.67,0.33-1.12,0.33c-0.36,0-0.69-0.08-0.97-0.25c-0.29-0.16-0.51-0.39-0.68-0.69
				c-0.16-0.3-0.25-0.64-0.25-1.03s0.08-0.73,0.24-1.03c0.16-0.3,0.38-0.53,0.67-0.69c0.29-0.16,0.62-0.24,0.99-0.24
				c0.36,0,0.68,0.08,0.96,0.23s0.5,0.38,0.66,0.66c0.16,0.28,0.23,0.61,0.23,0.98C64.03,33.04,64.02,33.17,64.01,33.28z
				 M63.21,32.65c0-0.29-0.11-0.52-0.31-0.7c-0.2-0.17-0.45-0.26-0.75-0.26c-0.27,0-0.5,0.09-0.7,0.26
				c-0.19,0.17-0.31,0.41-0.34,0.7H63.21z"/>
			<path class="st0" d="M71.64,30.1v4.79h-0.79v-3.28l-1.46,3.28h-0.54l-1.47-3.28v3.28H66.6V30.1h0.85l1.68,3.76l1.67-3.76H71.64z"
				/>
			<path class="st0" d="M76.13,33.28h-2.9c0.02,0.3,0.14,0.55,0.34,0.73s0.45,0.28,0.74,0.28c0.42,0,0.72-0.18,0.9-0.53h0.85
				c-0.11,0.35-0.32,0.63-0.62,0.86c-0.3,0.22-0.67,0.33-1.12,0.33c-0.36,0-0.69-0.08-0.97-0.25c-0.29-0.16-0.51-0.39-0.68-0.69
				c-0.16-0.3-0.25-0.64-0.25-1.03s0.08-0.73,0.24-1.03c0.16-0.3,0.38-0.53,0.67-0.69c0.29-0.16,0.62-0.24,0.99-0.24
				c0.36,0,0.68,0.08,0.96,0.23s0.5,0.38,0.66,0.66c0.16,0.28,0.23,0.61,0.23,0.98C76.16,33.04,76.15,33.17,76.13,33.28z
				 M75.34,32.65c0-0.29-0.11-0.52-0.31-0.7c-0.2-0.17-0.45-0.26-0.75-0.26c-0.27,0-0.5,0.09-0.7,0.26
				c-0.19,0.17-0.31,0.41-0.34,0.7H75.34z"/>
			<path class="st0" d="M76.91,31.96c0.16-0.29,0.37-0.52,0.65-0.69s0.58-0.25,0.91-0.25c0.25,0,0.49,0.05,0.73,0.16
				c0.24,0.11,0.43,0.25,0.58,0.43v-1.83h0.79v5.1h-0.79v-0.57c-0.13,0.18-0.31,0.34-0.53,0.46c-0.23,0.12-0.49,0.18-0.78,0.18
				c-0.33,0-0.63-0.08-0.91-0.25s-0.49-0.4-0.65-0.7c-0.16-0.3-0.24-0.64-0.24-1.02S76.75,32.25,76.91,31.96z M79.62,32.3
				c-0.11-0.19-0.25-0.34-0.42-0.44c-0.17-0.1-0.36-0.15-0.57-0.15s-0.39,0.05-0.57,0.15s-0.32,0.24-0.42,0.43
				c-0.11,0.19-0.16,0.42-0.16,0.68s0.05,0.49,0.16,0.69c0.11,0.2,0.25,0.35,0.43,0.45c0.18,0.1,0.36,0.16,0.56,0.16
				c0.2,0,0.39-0.05,0.57-0.15c0.17-0.1,0.32-0.25,0.42-0.45c0.11-0.2,0.16-0.42,0.16-0.69S79.72,32.5,79.62,32.3z"/>
			<path class="st0" d="M81.64,30.44c-0.1-0.1-0.14-0.22-0.14-0.36s0.05-0.26,0.14-0.36s0.22-0.14,0.36-0.14
				c0.14,0,0.25,0.05,0.35,0.14s0.14,0.22,0.14,0.36s-0.05,0.26-0.14,0.36c-0.1,0.1-0.21,0.15-0.35,0.15
				C81.86,30.59,81.74,30.54,81.64,30.44z M82.39,31.09v3.8H81.6v-3.8H82.39z"/>
			<path class="st0" d="M83.4,31.96c0.16-0.3,0.38-0.53,0.66-0.69c0.28-0.16,0.6-0.24,0.96-0.24c0.46,0,0.84,0.11,1.14,0.33
				c0.3,0.22,0.5,0.53,0.61,0.93h-0.85c-0.07-0.19-0.18-0.33-0.33-0.44c-0.15-0.11-0.34-0.16-0.57-0.16c-0.32,0-0.58,0.11-0.77,0.34
				c-0.19,0.23-0.29,0.55-0.29,0.96s0.1,0.73,0.29,0.96c0.19,0.23,0.45,0.34,0.77,0.34c0.46,0,0.76-0.2,0.9-0.6h0.85
				c-0.11,0.39-0.32,0.69-0.62,0.92c-0.3,0.23-0.68,0.34-1.13,0.34c-0.36,0-0.68-0.08-0.96-0.25s-0.5-0.39-0.66-0.69
				c-0.16-0.3-0.24-0.64-0.24-1.03S83.24,32.25,83.4,31.96z"/>
			<path class="st0" d="M87.54,31.96c0.16-0.29,0.37-0.52,0.65-0.69s0.58-0.25,0.91-0.25c0.3,0,0.56,0.06,0.78,0.18
				c0.22,0.12,0.4,0.26,0.53,0.44v-0.55h0.79v3.8h-0.79v-0.57c-0.13,0.18-0.32,0.33-0.54,0.45c-0.23,0.12-0.49,0.18-0.79,0.18
				c-0.33,0-0.62-0.08-0.9-0.25c-0.27-0.17-0.49-0.4-0.64-0.7c-0.16-0.3-0.24-0.64-0.24-1.02S87.38,32.25,87.54,31.96z M90.24,32.3
				c-0.11-0.19-0.25-0.34-0.42-0.44c-0.17-0.1-0.36-0.15-0.57-0.15s-0.39,0.05-0.57,0.15s-0.32,0.24-0.42,0.43
				c-0.11,0.19-0.16,0.42-0.16,0.68s0.05,0.49,0.16,0.69c0.11,0.2,0.25,0.35,0.43,0.45c0.18,0.1,0.36,0.16,0.56,0.16
				c0.2,0,0.39-0.05,0.57-0.15c0.17-0.1,0.32-0.25,0.42-0.45c0.11-0.2,0.16-0.42,0.16-0.69S90.35,32.5,90.24,32.3z"/>
			<path class="st0" d="M93.02,29.79v5.1h-0.79v-5.1H93.02z"/>
			<path class="st0" d="M98.94,30.1v0.64h-1.28v4.15h-0.79v-4.15H95.6V30.1H98.94z"/>
			<path class="st0" d="M100.41,34.71c-0.29-0.16-0.52-0.39-0.68-0.69c-0.17-0.3-0.25-0.64-0.25-1.03c0-0.39,0.08-0.73,0.25-1.03
				c0.17-0.3,0.4-0.53,0.7-0.69c0.29-0.16,0.62-0.24,0.99-0.24c0.36,0,0.69,0.08,0.99,0.24c0.29,0.16,0.53,0.39,0.7,0.69
				c0.17,0.3,0.25,0.64,0.25,1.03s-0.09,0.73-0.26,1.03s-0.41,0.53-0.71,0.69c-0.3,0.16-0.63,0.25-1,0.25
				C101.02,34.95,100.7,34.87,100.41,34.71z M101.95,34.12c0.18-0.1,0.32-0.24,0.43-0.43s0.17-0.43,0.17-0.7s-0.05-0.51-0.16-0.7
				c-0.11-0.19-0.25-0.33-0.42-0.43c-0.17-0.1-0.36-0.14-0.56-0.14c-0.2,0-0.39,0.05-0.56,0.14c-0.17,0.1-0.31,0.24-0.41,0.43
				c-0.1,0.19-0.15,0.42-0.15,0.7c0,0.41,0.1,0.72,0.31,0.95c0.21,0.22,0.47,0.33,0.79,0.33C101.58,34.27,101.77,34.22,101.95,34.12
				z"/>
			<path class="st0" d="M107.57,31.09v3.8h-0.79v-0.45c-0.12,0.16-0.29,0.28-0.49,0.37c-0.2,0.09-0.41,0.13-0.64,0.13
				c-0.3,0-0.57-0.06-0.8-0.19s-0.42-0.31-0.56-0.55c-0.14-0.24-0.2-0.54-0.2-0.88v-2.23h0.78v2.12c0,0.34,0.08,0.6,0.25,0.78
				s0.4,0.27,0.7,0.27s0.53-0.09,0.7-0.27c0.17-0.18,0.26-0.44,0.26-0.78v-2.12H107.57z"/>
			<path class="st0" d="M109.85,31.19c0.19-0.11,0.42-0.16,0.68-0.16v0.81h-0.2c-0.31,0-0.54,0.08-0.7,0.23
				c-0.16,0.16-0.24,0.43-0.24,0.81v2h-0.79v-3.8h0.79v0.55C109.51,31.45,109.66,31.3,109.85,31.19z"/>
			<path class="st0" d="M111.29,30.44c-0.1-0.1-0.14-0.22-0.14-0.36s0.05-0.26,0.14-0.36s0.22-0.14,0.36-0.14
				c0.14,0,0.25,0.05,0.35,0.14s0.14,0.22,0.14,0.36s-0.05,0.26-0.14,0.36c-0.1,0.1-0.21,0.15-0.35,0.15
				C111.51,30.59,111.39,30.54,111.29,30.44z M112.04,31.09v3.8h-0.79v-3.8H112.04z"/>
			<path class="st0" d="M113.65,34.79c-0.24-0.11-0.42-0.25-0.56-0.44c-0.14-0.19-0.21-0.39-0.22-0.62h0.81
				c0.01,0.16,0.09,0.3,0.23,0.4c0.14,0.11,0.32,0.16,0.53,0.16c0.22,0,0.39-0.04,0.51-0.13s0.18-0.19,0.18-0.33
				c0-0.14-0.07-0.25-0.2-0.32c-0.14-0.07-0.35-0.15-0.64-0.23c-0.29-0.08-0.52-0.15-0.7-0.23c-0.18-0.07-0.33-0.19-0.47-0.34
				s-0.2-0.35-0.2-0.6c0-0.2,0.06-0.39,0.18-0.56c0.12-0.17,0.29-0.3,0.51-0.4c0.22-0.1,0.48-0.15,0.77-0.15
				c0.43,0,0.78,0.11,1.04,0.33c0.26,0.22,0.41,0.52,0.42,0.89h-0.79c-0.01-0.17-0.08-0.31-0.21-0.41c-0.12-0.1-0.29-0.15-0.5-0.15
				c-0.21,0-0.37,0.04-0.48,0.12s-0.17,0.18-0.17,0.31c0,0.1,0.04,0.19,0.11,0.25c0.07,0.07,0.16,0.12,0.27,0.16
				s0.26,0.09,0.47,0.15c0.28,0.07,0.5,0.15,0.68,0.22c0.18,0.08,0.33,0.19,0.46,0.33c0.13,0.15,0.2,0.34,0.2,0.59
				c0,0.22-0.06,0.41-0.18,0.58s-0.29,0.3-0.51,0.4c-0.22,0.1-0.47,0.14-0.77,0.14C114.15,34.95,113.88,34.9,113.65,34.79z"/>
			<path class="st0" d="M122.15,31.22c0.24,0.12,0.42,0.31,0.56,0.55c0.13,0.24,0.2,0.54,0.2,0.88v2.24h-0.78v-2.12
				c0-0.34-0.08-0.6-0.25-0.78c-0.17-0.18-0.4-0.27-0.7-0.27s-0.53,0.09-0.7,0.27c-0.17,0.18-0.26,0.44-0.26,0.78v2.12h-0.78v-2.12
				c0-0.34-0.08-0.6-0.25-0.78c-0.17-0.18-0.4-0.27-0.7-0.27s-0.53,0.09-0.7,0.27c-0.17,0.18-0.26,0.44-0.26,0.78v2.12h-0.79v-3.8
				h0.79v0.43c0.13-0.16,0.29-0.28,0.49-0.37c0.2-0.09,0.41-0.13,0.63-0.13c0.3,0,0.57,0.06,0.81,0.19
				c0.24,0.13,0.42,0.31,0.55,0.56c0.12-0.23,0.29-0.41,0.54-0.55c0.24-0.14,0.5-0.2,0.79-0.2
				C121.65,31.03,121.92,31.09,122.15,31.22z"/>
		</g>
	</g>
</g>
</svg>
